# xmcd
#
# Track frame offsets: 
#        150
#        18365
#        31790
#        45802
#        75657
#        96615
#        108952
#        121915
#        139547
#        154072
#        168634
#        182295
#        202847
#        218007
#
# Disc length: 3047 seconds
#
# Revision: 0
# Processed by: cddbd v1.5.2PL0 Copyright (c) Steve Scherf et al.
# Submitted via: ExactAudioCopy v0.99pb3
#
DISCID=a30be50e
DTITLE=Mark Wenner - Runs Good - Needs Pait
DYEAR=2000
DGENRE=Blues
TTITLE0=Back To The City
TTITLE1=Too Much
TTITLE2=Lonesome Fugitive
TTITLE3=Shade Tree Mechanic
TTITLE4=Honky Tonk Hardwood Floor
TTITLE5=The Wild One
TTITLE6=So Lonesome I Could Cry
TTITLE7=Love's Gonna Live Here
TTITLE8=Too Young To Know
TTITLE9=Rollin' And Tumblin'
TTITLE10=Made Up My Mind
TTITLE11=Chitlins Con Carne
TTITLE12=I Want To Be Loved
TTITLE13=Amazing Grace
EXTD=
EXTT0=
EXTT1=
EXTT2=
EXTT3=
EXTT4=
EXTT5=
EXTT6=
EXTT7=
EXTT8=
EXTT9=
EXTT10=
EXTT11=
EXTT12=
EXTT13=
PLAYORDER=
